<?xml version="1.0" encoding="UTF-8"?>
<!-- Generated by Pixelmator Pro 3.3.11 -->
<svg width="598" height="583" viewBox="0 0 598 583" xmlns="http://www.w3.org/2000/svg" xmlns:xlink="http://www.w3.org/1999/xlink">
    <path id="Path" fill="#e6e7e8" stroke="none" d="M 16 119 L 336 119 C 344.836548 119 352 126.163452 352 135 L 352 567 C 352 575.836548 344.836548 583 336 583 L 16 583 C 7.163445 583 0 575.836548 0 567 L 0 135 C 0 126.163452 7.163445 119 16 119 Z"/>
    <path id="path1" fill="#ff5023" stroke="none" d="M 304 119 L 304 207 L 280 175 L 256 207 L 256 119 Z"/>
    <path id="Path-copy-3" fill="#000000" fill-opacity="0.209938" stroke="none" d="M 251.109314 509.968597 C 253.83783 510.688416 256.566345 511.408081 259.294922 512.127808 C 378.667114 543.786987 521.958496 472.401184 598.162354 348.813477 C 523.545044 402.606262 433.585449 425.399902 355.84375 403.176758 C 349.026733 401.035217 342.209839 398.893799 335.401733 396.067871 C 337.48999 393.357056 339.58728 389.961853 341.702271 385.197937 C 341.702271 385.197937 412.449341 268.390381 549 136 C 552.465942 132.622437 448.12915 200.398926 357.38269 284.099731 C 380.488037 244.014893 437.751221 152.341064 503 82 C 488.513794 90.710815 499.625854 81.967529 486.481689 92.749146 C 410.442505 150.630371 317.055786 226.767944 244.689148 318.235474 C 205.837097 252.709229 203.600525 160.962036 247.890869 70.50061 C 258.447998 48.049683 271.724976 27.002808 286.352661 7.342407 C 224.265808 44.870117 170.117126 103.71875 137.699402 175.852905 C 99.630127 261.603516 100.568665 347.858276 133.963623 411.945068 L 133.963623 411.945068 C 133.963623 411.945068 133.954834 412.629456 134.639221 412.638306 C 135.972595 415.393311 137.990173 418.157349 139.323608 420.912354 C 154.665588 451.91156 169.627441 512.337891 106.242554 544.373047 C 91.747314 553.768127 173.648315 571.938232 251.109314 509.968597 C 251.109314 509.968597 251.109314 509.968597 251.109314 509.968597 Z"/>
    <path id="path2" fill="#ff9811" stroke="none" d="M 249.109314 502.968597 C 251.83783 503.688416 254.566345 504.408081 257.294922 505.127808 C 376.667114 536.786987 519.958496 465.401184 596.162354 341.813477 C 521.545044 395.606262 431.585449 418.399902 353.84375 396.176758 C 347.026733 394.035217 340.209839 391.893799 333.401733 389.067871 C 335.48999 386.357056 337.58728 382.961853 339.702271 378.197937 C 339.702271 378.197937 410.449341 261.390381 547 129 C 550.465942 125.622437 497.625854 74.967529 484.481689 85.749146 C 408.442505 143.630371 315.055786 219.767944 242.689148 311.235474 C 203.837097 245.709229 201.600525 153.962036 245.890869 63.50061 C 256.447998 41.049683 269.724976 20.002808 284.352661 0.342407 C 222.265808 37.870117 168.117126 96.71875 135.699402 168.852905 C 97.630127 254.603516 98.568665 340.858276 131.963623 404.945068 L 131.963623 404.945068 C 131.963623 404.945068 131.954834 405.629456 132.639221 405.638306 C 133.972595 408.393311 135.990173 411.157349 137.323608 413.912354 C 152.665588 444.91156 167.627441 505.337921 104.242554 537.373047 C 89.747314 546.768127 171.648315 564.938232 249.109314 502.968597 C 249.109314 502.968597 249.109314 502.968597 249.109314 502.968597 Z"/>
    <mask id="mask1" maskUnits="userSpaceOnUse" maskContentUnits="userSpaceOnUse" mask-type="alpha">
        <path id="path3" fill="#ff9811" stroke="none" d="M 249.109314 502.968597 C 251.83783 503.688416 254.566345 504.408081 257.294922 505.127808 C 376.667114 536.786987 519.958496 465.401184 596.162354 341.813477 C 521.545044 395.606262 431.585449 418.399902 353.84375 396.176758 C 347.026733 394.035217 340.209839 391.893799 333.401733 389.067871 C 335.48999 386.357056 337.58728 382.961853 339.702271 378.197937 C 339.702271 378.197937 410.449341 261.390381 547 129 C 550.465942 125.622437 497.625854 74.967529 484.481689 85.749146 C 408.442505 143.630371 315.055786 219.767944 242.689148 311.235474 C 203.837097 245.709229 201.600525 153.962036 245.890869 63.50061 C 256.447998 41.049683 269.724976 20.002808 284.352661 0.342407 C 222.265808 37.870117 168.117126 96.71875 135.699402 168.852905 C 97.630127 254.603516 98.568665 340.858276 131.963623 404.945068 L 131.963623 404.945068 C 131.963623 404.945068 131.954834 405.629456 132.639221 405.638306 C 133.972595 408.393311 135.990173 411.157349 137.323608 413.912354 C 152.665588 444.91156 167.627441 505.337921 104.242554 537.373047 C 89.747314 546.768127 171.648315 564.938232 249.109314 502.968597 C 249.109314 502.968597 249.109314 502.968597 249.109314 502.968597 Z"/>
    </mask>
    <g id="Group" mask="url(#mask1)">
        <g id="g1">
            <path id="path4" fill="#ff9811" stroke="none" d="M 440.910583 210.70871 L 421.364349 189.046692 L 161.993134 423.084473 L 249.692673 520.277039 L 433.53894 354.283508 L 509.063904 286.239227 Z"/>
            <path id="path5" fill="#acabb1" stroke="none" d="M 122 375 L 279.395752 504.105347 L 269.096069 516.590454 L 193.481812 542.640198 L 135.060242 453.748657 C 135.060242 453.748657 122 375 122 375 Z"/>
            <path id="path6" fill="#787680" stroke="none" d="M 218.66124 535.443726 L 96.718826 556.781067 L 136.975708 465.185486 Z"/>
        </g>
    </g>
    <path id="Path-copy-2" fill="#d1d3d4" stroke="none" d="M 461.529663 98.24231 L 434.970093 123.643555 L 443.373535 129.953979 L 498.542236 180.824585 L 525.101807 155.42334 Z"/>
    <path id="Path-copy" fill="#e6e7e8" stroke="none" d="M 539 83 C 539 83 551.778198 95.781372 552.09082 109.951782 C 552.403564 124.122192 544.825073 134.784058 535 145 L 524 156 L 461.421875 98.96582 L 474.062866 89.213013 C 483.842896 78.959961 497.30188 73.021484 511.467896 72.708862 C 525.633911 72.396362 539 83 539 83 Z"/>
</svg>
